<?xml version="1.0" standalone="no"?><!DOCTYPE svg PUBLIC "-//W3C//DTD SVG 1.1//EN" "http://www.w3.org/Graphics/SVG/1.1/DTD/svg11.dtd"><svg t="1710926621561" class="icon" viewBox="0 0 1024 1024" version="1.1" xmlns="http://www.w3.org/2000/svg" p-id="1684" xmlns:xlink="http://www.w3.org/1999/xlink" width="128" height="128"><path d="M379.392 675.157333c-8.704 0-17.408-3.413333-24.064-10.069333-95.402667-95.402667-95.402667-250.709333 0-346.282667 57.344-57.344 139.605333-85.162667 209.408-70.826666 56.149333 11.605333 99.669333 48.981333 122.709333 105.472 70.314667 138.581333 150.869333 198.826667 192.853334 222.549333 16.384 9.216 22.186667 30.037333 12.970666 46.421333-9.216 16.384-30.037333 22.186667-46.421333 12.970667-59.562667-33.621333-146.261333-104.789333-220.842667-252.416l-1.194666-2.730667c-14.506667-36.352-39.253333-58.197333-73.557334-65.365333-47.274667-9.728-106.496 11.264-147.285333 52.224-68.778667 68.778667-68.778667 180.906667 0 249.685333 13.312 13.312 13.312 34.986667 0 48.298667-7.168 6.656-15.872 10.069333-24.576 10.069333zM622.762667 918.528c-8.704 0-17.408-3.413333-24.064-10.069333l-164.010667-164.010667c-13.312-13.312-13.312-34.986667 0-48.298667s34.986667-13.312 48.298667 0l164.010666 164.010667c13.312 13.312 13.312 34.986667 0 48.298667-6.826667 6.656-15.530667 10.069333-24.234666 10.069333zM915.285333 474.112c-8.021333 0-16.042667-2.730667-22.528-8.533333-17.066667-15.018667-33.962667-31.914667-50.176-50.517334-13.312-15.36-26.794667-32.085333-39.594666-49.834666-11.093333-15.189333-7.68-36.522667 7.68-47.616s36.522667-7.68 47.616 7.68c11.776 16.213333 23.722667 31.232 35.669333 45.056 14.336 16.384 29.013333 31.232 43.861333 44.202666 14.165333 12.458667 15.530667 33.962667 3.072 48.128-6.826667 7.509333-16.213333 11.434667-25.6 11.434667z" fill="#29D4B0" p-id="1685"></path><path d="M428.202667 917.162667c-8.704 0-17.408-3.413333-24.064-10.069334L228.010667 731.136c-72.021333-72.021333-111.616-167.765333-111.616-269.653333 0-101.888 39.594667-197.632 111.616-269.653334C307.2 112.64 424.618667 71.850667 542.208 82.773333c107.178667 9.898667 197.802667 61.610667 255.317333 145.749334 10.581333 15.530667 6.656 36.864-8.874666 47.445333-15.530667 10.581333-36.693333 6.656-47.445334-8.874667-45.738667-66.901333-118.613333-108.202667-205.312-116.224-96.085333-8.874667-195.413333 25.258667-259.413333 89.258667a311.125333 311.125333 0 0 0-91.648 221.354667c0 83.626667 32.597333 162.304 91.648 221.354666l175.786667 175.957334a34.2016 34.2016 0 0 1-24.064 58.368z" fill="#29D4B0" p-id="1686"></path><path d="M791.722667 825.856c-7.509333 0-15.018667-2.389333-21.333334-7.509333-133.632-107.52-248.832-236.885333-308.053333-345.941334-9.045333-16.554667-2.901333-37.376 13.653333-46.250666 16.554667-8.874667 37.376-2.901333 46.250667 13.653333 55.125333 101.546667 163.84 223.232 290.816 325.290667 14.677333 11.776 17.066667 33.28 5.12 47.957333-6.485333 8.362667-16.384 12.8-26.453333 12.8z" fill="#29D4B0" p-id="1687"></path></svg>